<svg height="512" viewBox="0 0 128 128" width="512" xmlns="http://www.w3.org/2000/svg"><g><path d="m115.2 26.44h-78.843-.024-.024-9.618-.024-.024-13.843a1.75 1.75 0 0 0 -1.75 1.75v16.25a1.75 1.75 0 0 0 1.75 1.75h44.62v3.851a26.217 26.217 0 0 0 -18.785 18.921 6.557 6.557 0 0 0 .027 12.949 26.245 26.245 0 0 0 25.3 19.647h.043s.028 0 .043 0a26.245 26.245 0 0 0 25.289-19.645 6.553 6.553 0 0 0 5.533-6.473 6.573 6.573 0 0 0 -5.505-6.477 26.217 26.217 0 0 0 -18.785-18.922v-3.851h44.62a1.75 1.75 0 0 0 1.75-1.75v-16.25a1.75 1.75 0 0 0 -1.75-1.75zm-68.378 9.873-3.611 6.377h-5.128v-12.75h5.131zm-12.239 6.377h-6.166v-12.75h6.166zm-20.033-12.75h10.367v12.75h-10.367zm32.683 12.75 3.122-5.515a1.745 1.745 0 0 0 0-1.725l-3.12-5.51h10.185v12.75zm18.517 55.293v-10.92a1.75 1.75 0 1 0 -3.5 0v10.92a22.759 22.759 0 0 1 -19.95-15.983h43.4a22.759 22.759 0 0 1 -19.95 15.983zm25.62-22.543a3.064 3.064 0 0 1 -3.06 3.06h-48.62a3.065 3.065 0 0 1 0-6.13h48.62a3.069 3.069 0 0 1 3.06 3.07zm-5.639-6.57h-43.462a22.683 22.683 0 0 1 43.462 0zm-24.811-19.68v-19.25h6.16v19.25zm52.53-6.5h-42.87v-12.75h42.87z"/><circle cx="106.667" cy="36.313" r="1.75"/><circle cx="92.25" cy="36.313" r="1.75"/></g></svg>