<svg height="512pt" viewBox="0 -9 512 511" width="512pt" xmlns="http://www.w3.org/2000/svg"><path d="m115.292969 214.558594c-4.144531 0-7.5 3.359375-7.5 7.5v11.597656c0 4.140625 3.355469 7.5 7.5 7.5 4.140625 0 7.5-3.359375 7.5-7.5v-11.597656c0-4.140625-3.359375-7.5-7.5-7.5zm0 0"/><path d="m243.4375 214.558594c-4.144531 0-7.5 3.359375-7.5 7.5v11.597656c0 4.140625 3.355469 7.5 7.5 7.5 4.140625 0 7.5-3.359375 7.5-7.5v-11.597656c0-4.140625-3.359375-7.5-7.5-7.5zm0 0"/><path d="m161.96875 238.0625c5.285156 2.277344 11.179688 3.550781 17.394531 3.550781 6.214844 0 12.109375-1.273437 17.398438-3.550781 5.550781-2.390625 3.855469-10.667969-2.1875-10.667969h-30.421875c-6.042969 0-7.734375 8.277344-2.183594 10.667969zm0 0"/><path d="m212.652344 249.769531c-3.117188-2.726562-7.855469-2.410156-10.582032.710938-2.058593 2.355469-5.167968 3.707031-8.53125 3.707031-3.359374 0-6.46875-1.351562-8.527343-3.707031-1.398438-1.601563-3.53125-2.5625-5.652344-2.558594-2.128906.003906-4.238281.953125-5.640625 2.554687-2.0625 2.359376-5.171875 3.710938-8.53125 3.710938-3.363281 0-6.472656-1.351562-8.53125-3.710938-2.726562-3.117187-7.464844-3.4375-10.582031-.710937-3.121094 2.726563-3.4375 7.464844-.710938 10.585937 4.90625 5.613282 12.132813 8.835938 19.824219 8.835938 5.113281 0 10.015625-1.433594 14.175781-4.039062 4.160157 2.605468 9.0625 4.039062 14.175781 4.039062 7.691407 0 14.917969-3.222656 19.824219-8.835938 2.726563-3.121093 2.410157-7.855468-.710937-10.582031zm0 0"/><path d="m476.027344 315.914062c11.5625 0 20.972656 9.410157 20.972656 20.976563 0 11.5625-9.410156 20.972656-20.972656 20.972656h-44.5c-4.140625 0-7.5 3.359375-7.5 7.5s3.359375 7.5 7.5 7.5h36.007812l-9.550781 76.695313c-2.058594 16.53125-16.171875 28.996094-32.832031 28.996094h-261.625c-4.140625 0-7.5 3.359374-7.5 7.5 0 4.144531 3.359375 7.5 7.5 7.5h261.628906c24.210938 0 44.722656-18.117188 47.714844-42.144532l9.859375-79.183594c16.640625-3.148437 29.269531-17.792968 29.269531-35.339843 0-19.835938-16.136719-35.972657-35.972656-35.972657h-10.601563c12.199219-29.535156 10.390625-63.042968-5.449219-90-.710937-1.210937-1.453124-2.394531-2.214843-3.566406 18.679687-35.566406 16.710937-63.691406 15.101562-86.539062-.796875-11.414063-1.488281-21.269532.464844-31.472656 2.679687-14 10.15625-27.320313 24.242187-43.199219 10.0625-11.339844 9.027344-28.753907-2.316406-38.820313-11.203125-9.941406-28.902344-8.871094-38.824218 2.324219-19.6875 22.1875-31.648438 43.828125-36.5625 66.164063-4.019532 18.21875-2.875 34.523437-1.859376 48.960937 1.121094 15.898437 2.101563 29.882813-4.183593 46.582031-13.027344-5.285156-27.621094-8.078125-43.253907-8.078125-13.210937 0-27.160156 1.949219-41.597656 5.792969 1.6875-12.003906 1.699219-26.097656-1.429687-42.207031-1.332031-6.867188-6.625-12.1875-13.484375-13.554688-9.464844-1.882812-18.652344-2.835937-27.308594-2.835937-29.957031 0-47.386719 11.265625-54.730469 17.488281-16.300781-6.484375-34.070312-10.050781-52.65625-10.050781-18.585937 0-36.351562 3.566406-52.652343 10.050781-7.347657-6.21875-24.777344-17.488281-54.730469-17.488281-8.660157 0-17.84375.957031-27.308594 2.835937-6.859375 1.367188-12.152344 6.6875-13.488281 13.554688-8.308594 42.8125 5.515625 71.40625 14.144531 84.296875-1.75 4.714844-3.265625 9.542968-4.519531 14.476562-3.289063 10.910156-4.394532 23.875-4.394532 35.222656 0 13.664063 1.921876 27.09375 5.707032 40.0625h-6.148438c-19.835937 0-35.972656 16.140626-35.972656 35.972657 0 17.546875 12.628906 32.191406 29.269531 35.339843l9.859375 79.183594c2.992188 24.027344 23.503906 42.144532 47.714844 42.144532h46.683594c4.144531 0 7.5-3.355469 7.5-7.5 0-4.140626-3.355469-7.5-7.5-7.5h-46.679688c-16.660156 0-30.773437-12.464844-32.832031-28.996094l-9.550781-76.695313h357.0625c4.144531 0 7.5-3.359375 7.5-7.5 0-4.144531-3.355469-7.5-7.5-7.5h-365.554688c-11.5625 0-20.972656-9.410156-20.972656-20.976562 0-11.5625 9.410156-20.972657 20.972656-20.972657zm-8.375-296.320312c4.53125-5.105469 12.546875-5.578125 17.648437-1.054688 5.152344 4.574219 5.625 12.484376 1.050781 17.644532-12.914062 14.550781-21.164062 27.914062-25.472656 41.378906-7.574218-2.933594-23.988281-6.488281-24.246094-6.527344 5.289063-17.039062 15.492188-33.945312 31.019532-51.441406zm-40.308594 158.414062c8.023438-20.300781 6.855469-36.867187 5.625-54.34375-.847656-12.058593-1.71875-24.46875.308594-37.945312 8.378906 1.257812 16.582031 3.496094 24.410156 6.742188-1.148438 9.921874-.480469 19.445312.222656 29.496093 1.441406 20.480469 3.054688 43.421875-10.386718 72.296875-.242188-.257812-3.554688-3.578125-3.679688-3.699218-4.992188-4.757813-10.496094-8.957032-16.5-12.546876zm-139.929688-10.75c-4.695312-5.421874-9.78125-10.472656-15.238281-15.128906 4.585938-1.109375 10.246094-1.882812 17.136719-1.910156-.101562 5.9375-.738281 11.628906-1.898438 17.039062zm-.664062-41.792968c7.675781 0 15.878906.859375 24.378906 2.550781.859375.167969 1.523438.835937 1.6875 1.699219 3.886719 20.011718 2.34375 36.320312-1.046875 48.851562-1.460937 5.40625-3.425781 10.671875-5.910156 15.691406-.265625-.5-6.71875-11.34375-7.167969-12.023437 3.570313-9.871094 5.464844-20.664063 5.625-32.15625.113282-8.089844-6.601562-14.855469-14.671875-14.863281-14.59375 0-25.058593 2.949218-32.035156 6.050781-3.257813-2.144531-6.597656-4.171875-10.023437-6.042969 7.4375-4.5 20.191406-9.757812 39.164062-9.757812zm-215.433594 41.792968c-1.164062-5.410156-1.796875-11.101562-1.902344-17.039062 6.886719.023438 12.550782.796875 17.140626 1.910156-5.457032 4.65625-10.546876 9.707032-15.238282 15.128906zm-18.453125 27.011719c-6.488281-13.113281-12.742187-34.730469-6.953125-64.558593.167969-.859376.832032-1.527344 1.6875-1.699219 8.5-1.6875 16.703125-2.546875 24.378906-2.546875 19.175782 0 31.863282 5.214844 39.242188 9.71875-3.457031 1.882812-6.820312 3.921875-10.101562 6.082031-6.976563-3.101563-17.457032-6.050781-32.105469-6.050781-8.042969 0-14.714844 6.847656-14.601563 14.863281.160156 11.492187 2.054688 22.285156 5.625 32.152344-.449218.683593-5.371094 8.636719-7.171875 12.039062zm3.785157 102.84375 25.855468-6.832031c4.003906-1.058594 6.394532-5.164062 5.335938-9.167969-1.058594-4.007812-5.160156-6.398437-9.167969-5.335937l-25.414063 6.714844c-.859374-5.035157-1.417968-10.128907-1.667968-15.269532h29c4.140625 0 7.5-3.359375 7.5-7.5 0-4.144531-3.359375-7.5-7.5-7.5h-28.878906c.34375-5.144531.992187-10.207031 1.929687-15.171875l25.03125 6.613281c3.949219 1.046876 8.125-1.382812 9.167969-5.332031 1.058594-4.007812-1.332032-8.109375-5.335938-9.167969l-25.21875-6.664062c8.042969-25.539062 24.265625-48.242188 45.714844-64.25 21.328125-15.917969 47.765625-25.351562 76.363281-25.351562 28.570313 0 54.984375 9.414062 76.300781 25.304687 11.625 8.660156 21.75 19.300781 29.867188 31.308594 6.792969 10.074219 12.1875 21.164062 15.910156 32.988281l-25.21875 6.664062c-4.003906 1.058594-6.394531 5.160157-5.335937 9.167969 1.035156 3.910157 5.253906 6.371094 9.167969 5.332031l25.03125-6.613281c.65625 3.492188 1.832031 13.707031 1.929687 15.171875h-28.878906c-4.140625 0-7.5 3.355469-7.5 7.5 0 4.140625 3.359375 7.5 7.5 7.5h29.003906c-.253906 5.121094-.804687 10.214844-1.667969 15.269532l-25.417968-6.714844c-4.007813-1.058594-8.109376 1.332031-9.167969 5.335937-1.058594 4.003907 1.332031 8.109375 5.335937 9.167969l25.855469 6.832031c-.355469 1.210938-.71875 2.421875-1.113281 3.625-.019532.058594-.039063.117188-.0625.175781h-243.085938c-.414062-1.257812-.792968-2.53125-1.167968-3.800781zm291.140624 3.800781c2.230469-29.359374 17.386719-45.785156 30.261719-54.535156 3.425781-2.328125 4.316407-6.992187 1.992188-10.417968-2.328125-3.425782-6.992188-4.316407-10.417969-1.992188-13.03125 8.855469-34.355469 28.996094-36.875 66.945312h-16.136719c5.183594-17.722656 6.824219-36.480468 4.9375-54.84375-1.226562-11.960937-3.941406-23.652343-8.132812-34.9375 3.957031-5.890624 8.527343-14.332031 11.90625-25.414062 15.882812-4.945312 31.085937-7.449219 45.242187-7.449219 30.300782 0 60.765625 13.496094 76.476563 40.242188 14.480469 24.648437 15.121093 55.839843 1.929687 82.402343zm0 0"/></svg>